<svg width="15" height="20" viewBox="0 0 15 20" fill="none" xmlns="http://www.w3.org/2000/svg">
<path id="Vector" d="M1.875 20C1.35938 20 0.918125 19.8137 0.55125 19.441C0.18375 19.0676 0 18.619 0 18.0952V8.57143C0 8.04762 0.18375 7.59905 0.55125 7.22571C0.918125 6.85302 1.35938 6.66667 1.875 6.66667H2.8125V4.7619C2.8125 3.44444 3.26969 2.32127 4.18406 1.39238C5.09781 0.464127 6.20312 0 7.5 0C8.79688 0 9.9025 0.464127 10.8169 1.39238C11.7306 2.32127 12.1875 3.44444 12.1875 4.7619V6.66667H13.125C13.6406 6.66667 14.0822 6.85302 14.4497 7.22571C14.8166 7.59905 15 8.04762 15 8.57143V18.0952C15 18.619 14.8166 19.0676 14.4497 19.441C14.0822 19.8137 13.6406 20 13.125 20H1.875ZM1.875 18.0952H13.125V8.57143H1.875V18.0952ZM7.5 15.2381C8.01562 15.2381 8.45719 15.0517 8.82469 14.679C9.19156 14.3057 9.375 13.8571 9.375 13.3333C9.375 12.8095 9.19156 12.361 8.82469 11.9876C8.45719 11.6149 8.01562 11.4286 7.5 11.4286C6.98438 11.4286 6.54313 11.6149 6.17625 11.9876C5.80875 12.361 5.625 12.8095 5.625 13.3333C5.625 13.8571 5.80875 14.3057 6.17625 14.679C6.54313 15.0517 6.98438 15.2381 7.5 15.2381ZM4.6875 6.66667H10.3125V4.7619C10.3125 3.96825 10.0391 3.29365 9.49219 2.7381C8.94531 2.18254 8.28125 1.90476 7.5 1.90476C6.71875 1.90476 6.05469 2.18254 5.50781 2.7381C4.96094 3.29365 4.6875 3.96825 4.6875 4.7619V6.66667Z" fill="#DDDFE4"/>
</svg>
